<?xml version="1.0" encoding="UTF-8" standalone="no"?> <svg xmlns="http://www.w3.org/2000/svg" viewBox="0 0 64 64"><g id="Layer_10" data-name="Layer 10"><path d="M52,12.51H12A1.5,1.5,0,0,0,10.5,14V56.17a5.33,5.33,0,0,0,5.33,5.33H48.17a5.33,5.33,0,0,0,5.33-5.33V14A1.5,1.5,0,0,0,52,12.51ZM50.5,56.17a2.34,2.34,0,0,1-2.33,2.33H15.83a2.34,2.34,0,0,1-2.33-2.33V15.51h37Z"/><path d="M54.18,7.75H43.83V4a1.5,1.5,0,0,0-1.5-1.5H21.67A1.5,1.5,0,0,0,20.17,4V7.75H9.82a1.5,1.5,0,0,0,0,3H54.18A1.5,1.5,0,0,0,54.18,7.75Zm-31,0V5.5H40.83V7.75Z"/><path d="M20.77,52.72a1.5,1.5,0,0,0,1.5-1.5V22.15a1.5,1.5,0,0,0-3,0V51.22A1.5,1.5,0,0,0,20.77,52.72Z"/><path d="M32,52.72a1.5,1.5,0,0,0,1.5-1.5V22.15a1.5,1.5,0,0,0-3,0V51.22A1.5,1.5,0,0,0,32,52.72Z"/><path d="M43.23,52.72a1.5,1.5,0,0,0,1.5-1.5V22.15a1.5,1.5,0,0,0-3,0V51.22A1.5,1.5,0,0,0,43.23,52.72Z"/></g></svg>